<?xml version="1.0"?>
<svg xmlns="http://www.w3.org/2000/svg" id="Layer_1" data-name="Layer 1" viewBox="0 0 512 512" width="512" height="512"><title>book</title><path d="M104.527,280C82.405,280,63,260.484,63,238.651v-22.5a36.832,36.832,0,0,1,4.981-18.469A42.361,42.361,0,0,0,44.072,209.7c-.127.141-.258.275-.393.4A37.491,37.491,0,0,0,33,236.153v22.5C33,280.484,52.405,300,74.527,300H443V280Z" style="fill:#d4e1f4"/><path d="M144.1,408c-19.583,0-38.1-18.176-38.1-37.523V350.4a28.423,28.423,0,0,1,2.831-12.105,38.668,38.668,0,0,0-22.748,10.152c-.081.082-.161.028-.245.105C79.5,354.709,76,362.7,76,370.4v20.076C76,409.824,94.515,428,114.1,428H441V408Z" style="fill:#d4e1f4"/><path d="M107.036,300.65a7,7,0,0,0-9.615,2.356L75.594,338.994A43.938,43.938,0,0,0,62,370.4v20.076C62,417.5,86.832,442,114.1,442H473.856a10.927,10.927,0,0,0,9.54-16.389L455,376.185V338h18.374a11.17,11.17,0,0,0,9.351-17l-11.138-18.019a7,7,0,0,0-9.636-2.282,7.151,7.151,0,0,0-2.266,9.765l8.3,13.533H114.1a57.61,57.61,0,0,0-13.9,1.564l9.2-15.23A7.081,7.081,0,0,0,107.036,300.65ZM468.674,428H455V404.3ZM441,338v90H114.1C94.515,428,76,409.824,76,390.477V370.4c0-7.7,3.5-15.692,9.838-21.848.084-.077.164-.023.245-.105C92.671,342.168,102.245,338,114.1,338Z" style="fill:#0635c9"/><path d="M98,390H423a7,7,0,0,0,0-14H98a7,7,0,0,0,0,14Z" style="fill:#0635c9"/><path d="M408,244H56a7,7,0,0,0,0,14H408a7,7,0,0,0,0-14Z" style="fill:#1ae5be"/><path d="M457,255V198.135L475.952,198h.028a10.9,10.9,0,0,0,8.043-18.368L395.055,84.383A10.926,10.926,0,0,0,387.011,81H135.845a10.87,10.87,0,0,0-8.542,3.978l-93.727,115.5A51.324,51.324,0,0,0,19,236.153v22.5C19,288.456,44.428,314,74.527,314h403.6a11.218,11.218,0,0,0,8.887-17.756ZM137.274,95H385.707l83.355,89.256-394.535-1.01a58.219,58.219,0,0,0-9.59.859ZM33,258.651v-22.5A37.491,37.491,0,0,1,43.679,210.1c.135-.129.266-.263.393-.4A42.7,42.7,0,0,1,74.51,197.2l368.49.9V300H74.527C52.405,300,33,280.484,33,258.651ZM457,300V278.757L472.23,300Z" style="fill:#1ae5be"/><path d="M174,122H330a7,7,0,0,0,0-14H174a7,7,0,0,0,0,14Z" style="fill:#1ae5be"/><path d="M163,149H349a7,7,0,0,0,0-14H163a7,7,0,0,0,0,14Z" style="fill:#1ae5be"/></svg>
