<svg id="Guide" height="512" viewBox="0 0 512 512" width="512" xmlns="http://www.w3.org/2000/svg"><path d="m119.953 432.5h-30c-38.767 0-42.953 22.746-42.953 32.525v24.975h30v-24.975c0-9.779 4.186-32.525 42.953-32.525z" fill="#d4e1f4"/><path d="m301.36 432.5h-.047.021z" fill="#d4e1f4"/><path d="m112.731 145.07h-30v275.714c2.339-.18 4.742-.282 7.222-.282h22.778z" fill="#d4e1f4"/><path d="m422.047 420.5c2.48 0 4.883.1 7.222.282v-.282z" fill="#d4e1f4"/><path d="m77 119.07v-83.07a14.016 14.016 0 0 1 14-14h-30a14.016 14.016 0 0 0 -14 14v83.07a14.016 14.016 0 0 0 14 14h30a14.016 14.016 0 0 1 -14-14z" fill="#d4e1f4"/><path d="m322.369 258.229v-37.915a7.8 7.8 0 0 0 -7.619-7.955h-22.929v-32.7h38.637a7.816 7.816 0 0 0 7.986-7.616v-32.973a6 6 0 0 0 -12 0v28.589h-162.744v-28.589a6 6 0 0 0 -12 0v32.973a7.816 7.816 0 0 0 7.985 7.616h38.638v32.7h-22.93a7.8 7.8 0 0 0 -7.62 7.955v12.957h-42.6a6 6 0 0 0 0 12h42.6v12.958a7.8 7.8 0 0 0 7.62 7.955h139.357a7.8 7.8 0 0 0 7.619-7.955zm-112.047-78.57h69.5v32.7h-69.5zm100.047 74.525h-130.6v-29.825h130.6z" fill="#0635c9"/><path d="m363.348 196.429h15.218v26.087a6 6 0 1 0 12 0v-26.087h15.217c5.357 0 9.554-3.581 9.554-8.152v-49.207a6 6 0 1 0 -12 0v45.359h-37.537v-45.359a6 6 0 0 0 -12 0v49.207c0 4.571 4.191 8.152 9.548 8.152z" fill="#0635c9"/><g fill="#1ae5be"><path d="m451 10h-390a26.029 26.029 0 0 0 -26 26v83.07a26.029 26.029 0 0 0 26 26h9.731v277.554c-22.442 5.355-35.731 20.593-35.731 42.401v28.822a8.179 8.179 0 0 0 8.186 8.153h425.628a8.179 8.179 0 0 0 8.186-8.153v-28.822c0-21.808-13.289-37.046-35.731-42.4v-277.555h9.731a26.029 26.029 0 0 0 26-26v-83.07a26.029 26.029 0 0 0 -26-26zm14 455.025v24.975h-418v-24.975c0-9.779 4.186-32.523 42.953-32.523h181.36.021.026 150.687c38.768-.002 42.953 22.744 42.953 32.523zm-249.027-72.671-.1-.219a82.535 82.535 0 0 1 -8.532-36.318l1.244-26.406h76.015l1.219 22.335a87.586 87.586 0 0 1 -6.676 38.464l-11.9 30.292h-38.725zm81.83-41.263-.639-11.715c10.6 2.583 18.427 11.438 18.427 21.939 0 9.556-9.819 17.181-20.8 19.879a99.478 99.478 0 0 0 3.009-30.103zm131.466 69.693c-2.339-.18-4.742-.282-7.222-.282h-141.909l10.1-25.711c.1-.245.2-.493.3-.739a48.385 48.385 0 0 0 23.192-8.426c8.941-6.329 13.865-14.963 13.865-24.311 0-17.307-13.506-31.693-31.1-34.286l-.132-2.418a6.958 6.958 0 0 0 -6.962-7.2h-85.658a6.959 6.959 0 0 0 -6.956 7.354l-1.442 30.629-.007.279a94.607 94.607 0 0 0 9.723 41.674l10.319 23.153h-125.427c-2.48 0-4.883.1-7.222.282v-275.712h346.538zm35.731-301.714a14.015 14.015 0 0 1 -14 14h-390a14.016 14.016 0 0 1 -14-14v-83.07a14.016 14.016 0 0 1 14-14h390a14.015 14.015 0 0 1 14 14z"/><path d="m99.211 50.779a27.5 27.5 0 1 0 27.832 27.5 27.7 27.7 0 0 0 -27.832-27.5zm0 43a15.5 15.5 0 1 1 15.832-15.5 15.686 15.686 0 0 1 -15.832 15.499z"/><path d="m318.914 39.349h-141.674a8.009 8.009 0 0 0 -8 8v61.859a8.009 8.009 0 0 0 8 8h141.674a8.009 8.009 0 0 0 8-8v-61.859a8.009 8.009 0 0 0 -8-8zm-4 65.859h-133.674v-53.859h133.674z"/><path d="m356.263 68.491a9.788 9.788 0 1 0 9.846 9.788 9.828 9.828 0 0 0 -9.846-9.788zm0 12a2.213 2.213 0 1 1 2.154-2.212 2.186 2.186 0 0 1 -2.154 2.212z"/><path d="m393.893 68.491a9.788 9.788 0 1 0 9.846 9.788 9.828 9.828 0 0 0 -9.846-9.788zm0 12a2.213 2.213 0 1 1 2.154-2.212 2.186 2.186 0 0 1 -2.154 2.212z"/><path d="m430.774 68.491a9.788 9.788 0 1 0 9.846 9.788 9.828 9.828 0 0 0 -9.846-9.788zm0 12a2.213 2.213 0 1 1 2.154-2.212 2.186 2.186 0 0 1 -2.154 2.212z"/></g></svg>