<svg id="Layer_1" height="512" viewBox="0 0 512 512" width="512" xmlns="http://www.w3.org/2000/svg" data-name="Layer 1"><path d="m121.8 433.931v-412.32a10.6 10.6 0 0 1 10.59-10.611h-30a10.6 10.6 0 0 0 -10.59 10.611v412.32a10.6 10.6 0 0 0 10.59 10.61h30a10.6 10.6 0 0 1 -10.59-10.61z" fill="#d4e1f4"/><g fill="#0635c9"><path d="m349.217 124.473h-25.866a6 6 0 1 0 0 12h25.866a6 6 0 0 0 0-12z"/><path d="m295.7 136.473h5.17a6 6 0 0 0 0-12h-5.17a6 6 0 1 0 0 12z"/><path d="m128.172 130.473a6 6 0 0 0 6 6h138.756a6 6 0 0 0 0-12h-138.756a6 6 0 0 0 -6 6z"/><path d="m349.217 174.218h-105.068a6 6 0 0 0 0 12h105.068a6 6 0 0 0 0-12z"/><path d="m220.279 174.218a6 6 0 0 0 0 12h1.529a6 6 0 0 0 0-12z"/><path d="m198.407 174.218h-64.235a6 6 0 0 0 0 12h64.235a6 6 0 0 0 0-12z"/><path d="m349.217 223.964h-8.557a6 6 0 0 0 0 12h8.557a6 6 0 0 0 0-12z"/><path d="m324.31 229.964a6 6 0 0 0 -6-6h-106.674a6 6 0 0 0 0 12h106.674a6 6 0 0 0 6-6z"/><path d="m194.983 229.964a6 6 0 0 0 -6-6h-54.811a6 6 0 1 0 0 12h54.811a6 6 0 0 0 6-6z"/><path d="m295.1 279.709a6 6 0 0 0 -6-6h-20.894a6 6 0 0 0 0 12h20.894a6 6 0 0 0 6-6z"/><path d="m194.1 285.709h52.024a6 6 0 0 0 0-12h-52.024a6 6 0 0 0 0 12z"/><path d="m178.107 279.709a6 6 0 0 0 -6-6h-37.935a6 6 0 1 0 0 12h37.935a6 6 0 0 0 6-6z"/><path d="m283.538 323.454h-27.928a6 6 0 0 0 0 12h27.928a6 6 0 0 0 0-12z"/><path d="m239.565 329.454a6 6 0 0 0 -6-6h-71.355a6 6 0 1 0 0 12h71.355a6 6 0 0 0 6-6z"/><path d="m146.161 329.454a6 6 0 0 0 -6-6h-5.989a6 6 0 1 0 0 12h5.989a6 6 0 0 0 6-6z"/><path d="m286.946 74.727h-6.446a6 6 0 0 0 0 12h6.446a6 6 0 0 0 0-12z"/><path d="m258.667 86.727a6 6 0 0 0 0-12h-88.29a6 6 0 0 0 0 12z"/><path d="m148.387 74.727h-15.236a6 6 0 0 0 0 12h15.236a6 6 0 0 0 0-12z"/><path d="m218.021 385.2h65.517a6 6 0 0 0 0-12h-65.517a6 6 0 0 0 0 12z"/><path d="m161.189 373.2a6 6 0 0 0 0 12h34.186a6 6 0 1 0 0-12z"/><path d="m134.172 373.2a6 6 0 1 0 0 12h4.006a6 6 0 0 0 0-12z"/></g><path d="m355.929 463.758a4.608 4.608 0 0 1 -4.594 4.612h-280.723a4.608 4.608 0 0 1 -4.593-4.612v-410.189a4.608 4.608 0 0 1 4.593-4.612h21.188v-12h-21.188a16.621 16.621 0 0 0 -16.593 16.612v8.953h-12.009a16.621 16.621 0 0 0 -16.593 16.612v411.253a16.621 16.621 0 0 0 16.593 16.613h280.723a16.622 16.622 0 0 0 16.594-16.613v-10.017h12.008a16.622 16.622 0 0 0 16.594-16.612v-18.149h-12zm-28.6 26.629a4.608 4.608 0 0 1 -4.596 4.613h-280.723a4.608 4.608 0 0 1 -4.593-4.613v-411.253a4.608 4.608 0 0 1 4.593-4.612h12.009v389.236a16.622 16.622 0 0 0 16.593 16.612h256.715z" fill="#1ae5be"/><path d="m481.343 273.633-48.278-14.8a6.706 6.706 0 0 0 -8.073 9.18l7.184 15.871-21.66 9.812c-19.92 9.058-27.423 31.885-18.247 55.512l5.409 11.673a7.072 7.072 0 0 0 13.426-1.553l1.9-8.189c.752-2.125 1.415-4.127 2.057-6.067 4.093-12.353 6.355-19.183 20.079-25.1l11.718-4.073 7.21 14.7a6.706 6.706 0 0 0 12.1-.166l19.791-46.72a7.416 7.416 0 0 0 -4.613-10.075zm-21.619 41.242-3.086-6.291a9.613 9.613 0 0 0 -11.693-4.725l-13.945 4.846-.388.15c-18.864 8.063-22.607 19.361-26.941 32.443q-.357 1.082-.728 2.19c-6.1-17.137-1.154-32.642 12.533-38.865l23.849-10.805a9.6 9.6 0 0 0 4.776-12.692l-3.343-7.384 32.205 9.873z" fill="#1ae5be"/><path d="m320.252 10.005a16.678 16.678 0 0 0 -11.871-5.005h-205.989a16.622 16.622 0 0 0 -16.592 16.612v412.319a16.622 16.622 0 0 0 16.593 16.613h279.663a16.623 16.623 0 0 0 16.594-16.613v-33.114h-12v33.114a4.609 4.609 0 0 1 -4.594 4.613h-279.664a4.608 4.608 0 0 1 -4.593-4.613v-412.319a4.608 4.608 0 0 1 4.593-4.612h202.689v40.273a41.764 41.764 0 0 0 41.685 41.749h39.884v169.671h12v-171.565a16.535 16.535 0 0 0 -4.723-11.608zm-3.171 47.268v-33.334l61.546 63.083h-31.861a29.751 29.751 0 0 1 -29.685-29.749z" fill="#0635c9"/><path d="m468.161 338.779a6 6 0 0 0 -6 6v38.711a11.324 11.324 0 0 1 -11.3 11.327h-101.17a11.324 11.324 0 0 1 -11.3-11.327v-97.47a11.324 11.324 0 0 1 11.3-11.327h59.294a6 6 0 0 0 0-12h-59.294a23.337 23.337 0 0 0 -23.3 23.327v97.47a23.337 23.337 0 0 0 23.3 23.327h101.174a23.338 23.338 0 0 0 23.3-23.327v-38.711a6 6 0 0 0 -6.004-6z" fill="#1ae5be"/></svg>