<svg height="452pt" viewBox="0 -89 452 452" width="452pt" xmlns="http://www.w3.org/2000/svg"><path d="m267 94.363281v-.363281c.054688-41.394531 30.917969-76.273438 72-81.367188-23.320312-2.914062-46.769531 4.335938-64.375 19.90625-17.605469 15.570313-27.667969 37.957032-27.625 61.460938v.363281c1 45 36.96875 81.636719 82 81.636719 3.347656-.007812 6.6875-.21875 10.007812-.636719-40.246093-4.949219-71.082031-39.382812-72.007812-81zm0 0" fill="#d4e1f4"/><g fill="#0635c9"><path d="m424 87.898438h-6.601562c-3.347657.109374-6.003907 2.859374-6 6.207031-.183594 45.03125-36.96875 81.777343-82 81.777343s-81.8125-36.804687-82-81.832031c0-3.339843-2.660157-6.070312-6-6.152343h-213.398438c-15.4375 0-28 13.023437-28 28.464843v102.671875c.0195312 13.148438 9.164062 24.515625 22 27.347656v21.417969c-.007812 3.332031 2.667969 6.050781 6 6.097657h99c3.332031-.046876 6.007812-2.765626 6-6.097657v-20.902343h187v20.902343c.039062 3.351563 2.746094 6.058594 6.101562 6.097657h99c3.3125-.054688 5.953126-2.785157 5.898438-6.097657v-21.679687c12.324219-3.234375 20.9375-14.34375 21-27.085938v-102.671875c0-15.441406-12.5625-28.464843-28-28.464843zm-303 174h-87v-15h87zm211 0v-15h87v15zm108-42.863282c-.007812 4.230469-1.703125 8.28125-4.707031 11.257813-3 2.976562-7.066407 4.632812-11.292969 4.605469h-396c-4.226562.027343-8.292969-1.628907-11.292969-4.605469-3.003906-2.976563-4.699219-7.027344-4.707031-11.257813v-102.671875c0-8.824219 7.179688-16.464843 16-16.464843h207.613281c3.324219 49.351562 44.324219 87.683593 93.789063 87.683593 49.460937 0 90.460937-38.332031 93.785156-87.683593h.8125c8.820312 0 16 7.640624 16 16.464843zm0 0"/><path d="m69 123.898438c0-3.3125-2.6875-6-6-6h-22c-3.3125 0-6 2.6875-6 6v88c0 3.316406 2.6875 6 6 6h22c3.3125 0 6-2.683594 6-6zm-12 82h-10v-76h10zm0 0"/><path d="m115 123.898438c0-3.3125-2.6875-6-6-6h-22c-3.3125 0-6 2.6875-6 6v88c0 3.316406 2.6875 6 6 6h22c3.3125 0 6-2.683594 6-6zm-12 82h-10v-76h10zm0 0"/><path d="m162 123.898438c0-3.3125-2.6875-6-6-6h-22c-3.3125 0-6 2.6875-6 6v88c0 3.316406 2.6875 6 6 6h22c3.3125 0 6-2.683594 6-6zm-12 82h-10v-76h10zm0 0"/></g><path d="m329 0c-51.890625.0585938-93.941406 42.109375-94 94v.386719c1 51.617187 42.378906 93.613281 94 93.613281s94-41.996094 94-93.636719v-.363281c-.058594-51.890625-42.109375-93.9414062-94-94zm82 94.339844c0 45.027344-36.96875 81.660156-82 81.660156s-81-36.632812-82-81.636719v-.363281c0-45.289062 36.710938-82 82-82s82 36.710938 82 82zm0 0" fill="#1ae5be"/><path d="m329.398438 33c-33.671876.039062-60.960938 27.328125-61 61 0 .1875 0 .378906.011718.566406.304688 33.464844 27.519532 60.4375 60.992188 60.4375 33.46875 0 60.683594-26.972656 60.988281-60.4375.007813-.1875.007813-.378906.007813-.566406-.035157-33.675781-27.324219-60.960938-61-61zm0 110c-26.90625-.058594-48.753907-21.765625-48.988282-48.675781 0-.148438-.007812-.296875-.019531-.449219v.125c.007813-13.863281 5.886719-27.074219 16.175781-36.363281 10.289063-9.289063 24.03125-13.789063 37.824219-12.382813.21875.019532.433594.058594.65625.082032.597656.070312 1.199219.136718 1.796875.230468.339844.050782.671875.121094 1 .179688.46875.082031.941406.15625 1.402344.25.457031.09375.921875.210937 1.378906.320312.328125.078125.660156.144532.984375.226563 21.632813 5.609375 36.753906 25.113281 36.789063 47.460937-.003907.105469-.007813.214844-.007813.320313-.234375 26.910156-22.082031 48.617187-48.992187 48.675781zm0 0" fill="#1ae5be"/><path d="m349.785156 62.585938c-2.929687-1.550782-6.5625-.429688-8.109375 2.5-1.550781 2.929687-.429687 6.558593 2.5 8.109374 3.066407 1.871094 5.679688 4.398438 7.664063 7.394532 4.316406 6.488281 5.125 14.429687 2.40625 23.605468-.941406 3.179688.871094 6.515626 4.050781 7.457032 3.175781.941406 6.515625-.871094 7.457031-4.046875 7.433594-25.101563-7.195312-40.425781-15.96875-45.019531zm0 0" fill="#1ae5be"/></svg>