<svg height="432pt" viewBox="-43 0 432 432" width="432pt" xmlns="http://www.w3.org/2000/svg"><path d="m86.710938 12h30v25.007812h-30zm0 0" fill="#d4e1f4"/><path d="m42 404.476562v-357.132812c.011719-8.570312 6.953125-15.511719 15.523438-15.523438h-30c-8.570313.011719-15.511719 6.953126-15.523438 15.523438v357.132812c.011719 8.570313 6.957031 15.515626 15.527344 15.523438h30c-8.570313-.007812-15.515625-6.953125-15.527344-15.523438zm0 0" fill="#d4e1f4"/><path d="m80.710938 0c-3.316407 0-6 2.6875-6 6v13.820312h-47.183594c-15.195313.015626-27.5078128 12.328126-27.527344 27.523438v357.132812c.0195312 15.195313 12.332031 27.507813 27.527344 27.523438h290.546875c15.195312-.015625 27.507812-12.328125 27.527343-27.523438v-357.132812c-.019531-15.191406-12.332031-27.503906-27.523437-27.523438h-36.425781v-13.820312c0-3.3125-2.6875-6-6-6zm6 12h182.941406v25.007812h-182.941406zm231.363281 19.820312c8.570312.007813 15.515625 6.953126 15.527343 15.523438v357.132812c-.011718 8.570313-6.957031 15.515626-15.527343 15.523438h-290.546875c-8.570313-.007812-15.515625-6.953125-15.527344-15.523438v-357.132812c.011719-8.570312 6.953125-15.511719 15.523438-15.523438h47.183593v11.1875c0 3.3125 2.683594 6 6 6h194.945313c3.3125 0 6-2.6875 6-6v-11.1875zm0 0" fill="#0635c9"/><g fill="#1ae5be"><path d="m179.429688 251.101562c0 2.230469.347656 4.449219 1.035156 6.574219l-18.925782 15.960938c-3.878906-4.960938-9.746093-7.964844-16.035156-8.214844-6.292968-.25-12.378906 2.277344-16.640625 6.914063l-19.375-13.492188c1.96875-10.566406-4.128906-20.972656-14.308593-24.417969-10.179688-3.445312-21.34375 1.117188-26.199219 10.707031-4.851563 9.589844-1.917969 21.285157 6.886719 27.449219 8.804687 6.164063 20.800781 4.914063 28.148437-2.925781l19.445313 13.542969c-1.417969 8.015625 1.808593 16.144531 8.339843 21.003906 6.527344 4.859375 15.238281 5.625 22.511719 1.96875 7.273438-3.652344 11.863281-11.09375 11.859375-19.234375 0-.488281-.039063-.964844-.074219-1.445312l21.128906-17.820313c7.269532 6.050781 17.636719 6.644531 25.546876 1.460937 7.910156-5.183593 11.503906-14.925781 8.855468-24.003906l18.261719-16.738281c6.238281 8.527344 17.753906 11.253906 27.15625 6.429687 9.398437-4.824218 13.898437-15.769531 10.605469-25.8125-3.289063-10.042968-13.394532-16.199218-23.828125-14.523437-10.433594 1.675781-18.101563 10.6875-18.082031 21.257813 0 .054687.011718.105468.011718.160156l-20.695312 18.96875c-6.355469-5.546875-15.367188-6.859375-23.042969-3.363282-7.675781 3.496094-12.597656 11.15625-12.585937 19.59375zm-91.101563 13.386719c-5.261719 0-9.527344-4.269531-9.527344-9.53125s4.265625-9.527343 9.527344-9.527343c5.265625 0 9.53125 4.265624 9.53125 9.527343-.007813 5.261719-4.269531 9.519531-9.53125 9.527344zm56.3125 31.976563c-5.261719 0-9.527344-4.265625-9.527344-9.527344 0-5.265625 4.265625-9.53125 9.527344-9.53125 5.265625 0 9.53125 4.265625 9.53125 9.53125-.007813 5.257812-4.269531 9.519531-9.527344 9.523438zm112.628906-90.253906c5.261719 0 9.527344 4.265624 9.527344 9.527343 0 5.265625-4.265625 9.53125-9.527344 9.53125s-9.53125-4.269531-9.53125-9.53125c.007813-5.261719 4.269531-9.527343 9.53125-9.53125zm-46.78125 44.890624c0 5.261719-4.269531 9.527344-9.53125 9.527344s-9.53125-4.265625-9.53125-9.527344c0-5.265624 4.269531-9.53125 9.53125-9.53125 5.261719.003907 9.523438 4.269532 9.53125 9.53125zm0 0"/><path d="m243.519531 251.386719c-3.3125 0-6 2.6875-6 6v116.40625c0 3.3125 2.6875 6 6 6h27.5c3.3125 0 6-2.6875 6-6v-116.40625c0-3.3125-2.6875-6-6-6zm21.5 116.40625h-15.5v-104.40625h15.5zm0 0"/><path d="m187.207031 286.605469c-3.316406 0-6 2.6875-6 6v81.1875c0 3.3125 2.683594 6 6 6h27.5c3.3125 0 6-2.6875 6-6v-81.1875c0-3.3125-2.6875-6-6-6zm21.5 81.1875h-15.5v-69.1875h15.5zm0 0"/><path d="m130.890625 322.773438c-3.3125 0-6 2.683593-6 6v45.019531c0 3.3125 2.6875 6 6 6h27.5c3.316406 0 6-2.6875 6-6v-45.019531c0-3.316407-2.683594-6-6-6zm21.5 45.019531h-15.5v-33.019531h15.5zm0 0"/><path d="m74.578125 290.941406c-3.3125 0-6 2.6875-6 6v76.851563c0 3.3125 2.6875 6 6 6h27.5c3.3125 0 6-2.6875 6-6v-76.851563c0-3.3125-2.6875-6-6-6zm21.5 76.851563h-15.5v-64.851563h15.5zm0 0"/><path d="m59.1875 169.089844h98.09375c3.3125 0 6-2.6875 6-6v-53.804688c0-3.3125-2.6875-6-6-6h-98.09375c-3.3125 0-6 2.6875-6 6v53.804688c0 3.3125 2.6875 6 6 6zm6-53.804688h86.09375v41.804688h-86.09375zm0 0"/><path d="m286.414062 157.089844h-4.167968c-3.3125 0-6 2.6875-6 6s2.6875 6 6 6h4.167968c3.3125 0 6-2.6875 6-6s-2.6875-6-6-6zm0 0"/><path d="m208.660156 169.089844h45.769532c3.3125 0 6-2.6875 6-6s-2.6875-6-6-6h-45.769532c-3.316406 0-6 2.6875-6 6s2.683594 6 6 6zm0 0"/><path d="m286.414062 103.285156h-46.136718c-3.3125 0-6 2.6875-6 6s2.6875 6 6 6h46.136718c3.3125 0 6-2.6875 6-6s-2.6875-6-6-6zm0 0"/><path d="m208.660156 115.285156h3.800782c3.3125 0 6-2.6875 6-6s-2.6875-6-6-6h-3.800782c-3.316406 0-6 2.6875-6 6s2.683594 6 6 6zm0 0"/><path d="m187.28125 207.089844h-70.675781c-3.3125 0-6 2.6875-6 6s2.6875 6 6 6h70.675781c3.3125 0 6-2.6875 6-6s-2.6875-6-6-6zm0 0"/><path d="m94.644531 219.089844c3.3125 0 6-2.6875 6-6s-2.6875-6-6-6h-7.886719c-3.3125 0-6 2.6875-6 6s2.6875 6 6 6zm0 0"/><path d="m59.1875 219.089844h5.984375c3.3125 0 6-2.6875 6-6s-2.6875-6-6-6h-5.984375c-3.3125 0-6 2.6875-6 6s2.6875 6 6 6zm0 0"/></g></svg>