<svg height="605pt" viewBox="-19 -87 605.33166 605" width="605pt" xmlns="http://www.w3.org/2000/svg"><path d="m306.703125 332.136719h-211.902344c-22.902343-.023438-41.457031-18.585938-41.488281-41.488281v-278.4375c-21.351562 1.964843-37.695312 19.867187-37.71875 41.3125v274.839843c.023438 22.90625 18.585938 41.464844 41.488281 41.496094h249.621094zm0 0" fill="#d4e1f4"/><path d="m442.285156 54.371094v212.300781h-17.492187v-151.90625h-407.300781v212.726563c.023437 22.761718 18.46875 41.203124 41.230468 41.230468h241.40625v17.488282h-241.40625c-32.417968-.03125-58.6874998-26.304688-58.722656-58.71875v-273.121094c.0351562-32.414063 26.304688-58.6875 58.722656-58.722656h324.839844c32.417969.039062 58.683594 26.308593 58.722656 58.722656zm-17.492187 42.902344v-42.902344c-.027344-22.757813-18.472657-41.199219-41.230469-41.230469h-324.839844c-22.761718.023437-41.207031 18.46875-41.230468 41.230469v42.902344zm0 0" fill="#0635c9"/><g fill="#1ae5be"><path d="m563.277344 268.058594c-2.621094-1.59375-5.886719-1.6875-8.59375-.25l-65.410156 34.445312v-1.847656c-.019532-18.625-15.109376-33.714844-33.734376-33.734375h-121.675781c-18.621093.019531-33.710937 15.109375-33.734375 33.734375v92.589844c.027344 18.617187 15.113282 33.703125 33.734375 33.734375h121.675781c18.625-.023438 33.710938-15.117188 33.734376-33.734375v-7.519532l64.882812 40.164063c2.699219 1.671875 6.089844 1.742187 8.863281.199219 2.765625-1.546875 4.484375-4.472656 4.480469-7.644532v-142.65625c.003906-3.0625-1.597656-5.902343-4.222656-7.480468zm-91.496094 124.9375c-.011719 8.964844-7.273438 16.226562-16.242188 16.242187h-121.675781c-8.960937-.019531-16.222656-7.28125-16.242187-16.242187v-92.589844c.011718-8.96875 7.273437-16.234375 16.242187-16.242188h121.675781c8.96875.003907 16.234376 7.269532 16.242188 16.242188zm78.226562 9.507812-60.734374-37.609375v-42.878906l60.734374-31.980469zm0 0"/><path d="m196.003906 31.394531h-.089844c-13.496093-.015625-24.453124 10.914063-24.472656 24.417969-.015625 13.496094 10.910156 24.453125 24.414063 24.472656h.074219c13.5.019532 24.460937-10.90625 24.480468-24.40625.019532-13.503906-10.90625-24.460937-24.40625-24.484375zm-.074218 31.402344h-.023438c-3.839844-.011719-6.949219-3.128906-6.941406-6.972656.007812-3.835938 3.125-6.945313 6.964844-6.9375h.011718c3.839844.007812 6.945313 3.132812 6.933594 6.972656-.015625 3.828125-3.117188 6.925781-6.945312 6.9375zm0 0"/><path d="m125.492188 31.167969h-.089844c-13.5-.019531-24.460938 10.910156-24.484375 24.410156-.019531 13.496094 10.90625 24.460937 24.40625 24.484375h.078125c13.460937-.019531 24.386718-10.902344 24.453125-24.363281.03125-13.5-10.871094-24.472657-24.363281-24.53125zm6.871093 24.476562c-.019531 3.832031-3.128906 6.925781-6.960937 6.925781h-.015625c-3.839844-.003906-6.949219-3.125-6.941407-6.960937.003907-3.839844 3.117188-6.949219 6.957032-6.949219h.023437c3.84375.011719 6.945313 3.132813 6.9375 6.976563zm0 0"/><path d="m54.957031 30.960938h-.070312c-13.5-.027344-24.460938 10.902343-24.480469 24.40625-.019531 13.5 10.90625 24.460937 24.40625 24.480468h.074219c9.871093 0 18.777343-5.941406 22.574219-15.054687 3.792968-9.117188 1.730468-19.621094-5.234376-26.625-4.558593-4.617188-10.777343-7.21875-17.269531-7.207031zm-.070312 31.394531h-.027344c-3.839844-.003907-6.949219-3.125-6.9375-6.964844.003906-3.839844 3.121094-6.949219 6.964844-6.9375h.023437c3.839844.007813 6.945313 3.125 6.933594 6.96875-.019531 3.828125-3.128906 6.929687-6.957031 6.933594zm0 0"/></g></svg>