<svg height="438pt" viewBox="0 -65 438 438" width="438pt" xmlns="http://www.w3.org/2000/svg"><path d="m49 99v-90c-22.089844 0-40 17.910156-40 40v90c0 22.089844 17.910156 40 40 40h340c22.089844 0 40-17.910156 40-40h-340c-22.089844 0-40-17.910156-40-40zm0 0" fill="#d4e1f4"/><path d="m387 98h-336c-4.96875 0-9-4.03125-9-9s4.03125-9 9-9h336c4.96875 0 9 4.03125 9 9s-4.03125 9-9 9zm0 0" fill="#1ae5be"/><path d="m387 59h-336c-4.96875 0-9-4.03125-9-9s4.03125-9 9-9h336c4.96875 0 9 4.03125 9 9s-4.03125 9-9 9zm0 0" fill="#1ae5be"/><path d="m289 278c-4.96875 0-9-4.03125-9-9v-50c0-4.96875 4.03125-9 9-9s9 4.03125 9 9v50c0 4.96875-4.03125 9-9 9zm0 0" fill="#1ae5be"/><path d="m159 278c-4.96875 0-9-4.03125-9-9v-50c0-4.96875 4.03125-9 9-9s9 4.03125 9 9v50c0 4.96875-4.03125 9-9 9zm0 0" fill="#1ae5be"/><g fill="#0635c9"><path d="m389 0h-340c-27.050781.03125-48.96875 21.949219-49 49v90c.03125 27.050781 21.949219 48.96875 49 49h340c27.050781-.03125 48.96875-21.949219 49-49v-90c-.03125-27.050781-21.949219-48.96875-49-49zm31 139c-.019531 17.113281-13.886719 30.980469-31 31h-340c-17.113281-.019531-30.980469-13.886719-31-31v-90c.019531-17.113281 13.886719-30.980469 31-31h340c17.113281.019531 30.980469 13.886719 31 31zm0 0"/><path d="m307 110c-13.253906 0-24 10.746094-24 24s10.746094 24 24 24 24-10.746094 24-24c-.015625-13.25-10.75-23.984375-24-24zm0 30c-3.3125 0-6-2.6875-6-6s2.6875-6 6-6 6 2.6875 6 6c-.003906 3.3125-2.6875 5.996094-6 6zm0 0"/><path d="m372 110c-13.253906 0-24 10.746094-24 24s10.746094 24 24 24 24-10.746094 24-24c-.015625-13.25-10.75-23.984375-24-24zm0 30c-3.3125 0-6-2.6875-6-6s2.6875-6 6-6 6 2.6875 6 6c-.003906 3.3125-2.6875 5.996094-6 6zm0 0"/><path d="m233 299v-80c0-4.96875-4.03125-9-9-9s-9 4.03125-9 9v80c0 4.96875 4.03125 9 9 9s9-4.03125 9-9zm0 0"/><path d="m363 249v-30c0-4.96875-4.03125-9-9-9s-9 4.03125-9 9v30c0 4.96875 4.03125 9 9 9s9-4.03125 9-9zm0 0"/><path d="m103 249v-30c0-4.96875-4.03125-9-9-9s-9 4.03125-9 9v30c0 4.96875 4.03125 9 9 9s9-4.03125 9-9zm0 0"/></g></svg>