<svg id="Layer_1" height="512" viewBox="0 0 512 512" width="512" xmlns="http://www.w3.org/2000/svg" data-name="Layer 1"><path d="m137.33 280.36a148.906 148.906 0 0 1 133.89-148.141q-7.4-.741-15-.749a148.89 148.89 0 0 0 0 297.78q7.594 0 15-.749a148.906 148.906 0 0 1 -133.89-148.141z" fill="#d4e1f4"/><path d="m143.12 405.44a189.312 189.312 0 0 1 -46.96-125.08c0-99.913 77.1-181.813 175.057-189.456-.739-.058-1.476-.125-2.217-.174q-6.345-.435-12.78-.43-6.66 0-13.22.46c-98.8 6.78-176.84 89.08-176.84 189.6a190.042 190.042 0 0 0 190.06 190.06q7.573 0 15-.592a189.94 189.94 0 0 1 -128.1-64.388z" fill="#d4e1f4"/><g fill="#1ae5be"><path d="m63.859 196.357a6 6 0 0 0 4.241-1.757l107.548-107.546a6 6 0 0 0 0-8.487 82.174 82.174 0 0 0 -116.028 0 82.175 82.175 0 0 0 0 116.028 6.006 6.006 0 0 0 4.244 1.759zm4.241-109.305a70.177 70.177 0 0 1 94.637-4.062l-98.7 98.7a70.179 70.179 0 0 1 4.063-94.638z"/><path d="m452.749 78.567a82.175 82.175 0 0 0 -116.028 0 6 6 0 0 0 0 8.487l107.544 107.367a5.84 5.84 0 0 0 4.243 1.579h.049a5.785 5.785 0 0 0 4.263-1.649c31.424-32.476 31.393-84.406-.069-115.871zm-4.494 103.052-98.626-98.626a70.178 70.178 0 0 1 94.636 4.06c25.435 25.437 26.758 66.659 3.99 94.566z"/><path d="m98.615 478.649a13.038 13.038 0 1 1 -21.006-15.449l40.439-54.335-9.626-7.165-40.439 54.336a25.038 25.038 0 1 0 40.34 29.667l36.946-50.845-9.708-7.054z"/><path d="m432.655 481.888a13.008 13.008 0 0 1 -17.78-3.007l-38.035-51.131-9.628 7.162 38.035 51.131a25.037 25.037 0 1 0 40.018-30.1l-41.283-54.293-9.552 7.264 41.283 54.292a13.038 13.038 0 0 1 -3.058 18.68z"/><path d="m282.587 18h-53.174c-9.925 0-18.413 7.936-18.413 17.861v18.264c0 3.314 3.1 5.875 6.413 5.875h19.587v31h12v-31h14v31h12v-31h19.587c3.313 0 6.413-2.561 6.413-5.875v-18.264c0-9.925-8.488-17.861-18.413-17.861zm6.413 30h-66v-12.139c0-3.308 3.1-5.861 6.413-5.861h53.174c3.313 0 6.413 2.553 6.413 5.861z"/></g><path d="m256.22 84.3c-108.107 0-196.058 87.951-196.058 196.058s87.951 196.062 196.058 196.062 196.059-87.951 196.059-196.058-87.951-196.062-196.059-196.062zm0 380.116c-101.49 0-184.058-82.568-184.058-184.058s82.568-184.058 184.058-184.058 184.059 82.568 184.059 184.058-82.568 184.062-184.059 184.062z" fill="#0635c9"/><path d="m315.229 226.251-61.313 63.87-37.016-37.065a6 6 0 0 0 -8.491 8.479l41.341 41.553a6.154 6.154 0 0 0 4.25 1.912h.059a6.1 6.1 0 0 0 4.269-2l65.557-68.366a6.026 6.026 0 0 0 -8.656-8.387z" fill="#0635c9"/><path d="m256.22 125.469c-85.408 0-154.892 69.485-154.892 154.893s69.484 154.893 154.892 154.893 154.893-69.485 154.893-154.893-69.484-154.893-154.893-154.893zm129.438 160.531h13.32a142.556 142.556 0 0 1 -37.616 90.838l-9.373-9.283a6.024 6.024 0 0 0 -8.485 8.553l9.263 9.385a142.39 142.39 0 0 1 -90.767 37.627v-13.32a6 6 0 0 0 -12 0v13.32a141.789 141.789 0 0 1 -90.546-37.62l9.428-9.373a5.985 5.985 0 1 0 -8.444-8.485l-9.366 9.192a142.55 142.55 0 0 1 -37.609-90.834h13.32a6 6 0 0 0 0-12h-13.32a141.606 141.606 0 0 1 37.615-90.476l9.374 9.464a6.027 6.027 0 0 0 4.242 1.8 5.972 5.972 0 0 0 4.243-10.209l-9.483-9.368a141.788 141.788 0 0 1 90.546-37.611v13.32a6 6 0 0 0 12 0v-13.32a142.374 142.374 0 0 1 90.767 37.616l-9.318 9.373a6.017 6.017 0 0 0 8.533 8.486l9.377-9.555a141.6 141.6 0 0 1 37.619 90.48h-13.32a6 6 0 0 0 0 12z" fill="#0635c9"/></svg>