<svg id="Layer_1" height="512" viewBox="0 0 512 512" width="512" xmlns="http://www.w3.org/2000/svg" data-name="Layer 1"><path d="m271 99.713c-4.938-.465-9.94-.713-15-.713-87 0-157.54 70.29-157.54 157s70.54 157 157.54 157c5.06 0 10.062-.248 15-.713-79.964-7.529-142.54-74.62-142.54-156.287s62.576-148.758 142.54-156.287z" fill="#d4e1f4"/><path d="m198.8 244.273a6 6 0 0 0 -.667 8.46l32.026 37.5a6 6 0 0 0 8.35.758l74.587-60.681a6 6 0 1 0 -7.573-9.309l-70.042 56.984-28.225-33.045a6 6 0 0 0 -8.456-.667z" fill="#0635c9"/><path d="m209.081 125.71c-4 1.453-7.99 3.114-11.848 4.938a6 6 0 1 0 5.13 10.849c3.52-1.665 7.157-3.181 10.81-4.506a6 6 0 1 0 -4.092-11.281z" fill="#0635c9"/><path d="m123.984 262a6 6 0 0 0 6-6 126.74 126.74 0 0 1 54.635-104.264 6 6 0 0 0 -6.823-9.871 138.738 138.738 0 0 0 -59.812 114.135 6 6 0 0 0 6 6z" fill="#0635c9"/><path d="m256 419c90.174 0 163.536-73.122 163.536-163s-73.362-163-163.536-163a163.081 163.081 0 0 0 -103.2 36.658 6.011 6.011 0 0 0 -.494 8.923l.006.005a5.994 5.994 0 0 0 8.029.395 151.145 151.145 0 0 1 95.659-33.981c83.557 0 151.536 67.738 151.536 151s-67.979 151-151.536 151-151.536-67.738-151.536-151a149.842 149.842 0 0 1 29.289-89.137 5.993 5.993 0 1 0 -9.669-7.083 161.758 161.758 0 0 0 -31.62 96.22c0 89.878 73.362 163 163.536 163z" fill="#0635c9"/><g fill="#1ae5be"><path d="m501 250h-37.513a6 6 0 0 0 0 12h37.513a6 6 0 0 0 0-12z"/><path d="m54.513 256a6 6 0 0 0 -6-6h-37.513a6 6 0 0 0 0 12h37.513a6 6 0 0 0 6-6z"/><path d="m447.279 328.261 38.4 13.233a6 6 0 0 0 3.909-11.346l-38.4-13.232a6 6 0 1 0 -3.909 11.345z"/><path d="m64.721 183.739-38.4-13.233a6 6 0 0 0 -3.909 11.346l38.4 13.232a6 6 0 1 0 3.909-11.345z"/><path d="m451.169 201.328a5.984 5.984 0 0 0 1.784-.272l38.784-12.056a6 6 0 1 0 -3.563-11.459l-38.784 12.059a6 6 0 0 0 1.779 11.731z"/><path d="m59.047 310.944-38.784 12.056a6 6 0 1 0 3.563 11.459l38.784-12.059a6 6 0 1 0 -3.563-11.459z"/></g></svg>