<svg xmlns="http://www.w3.org/2000/svg" width="173" height="178" viewBox="0 0 173 178">
  <g id="Cloud_Storage_48px" data-name="Cloud Storage_48px" transform="translate(-5 -5)">
    <path id="Path_1025" data-name="Path 1025" d="M5,29V76.131A18.765,18.765,0,0,0,23.7,94.983h130.89a18.765,18.765,0,0,0,18.7-18.852V29Z" transform="translate(0 88.017)" fill="#78909c"/>
    <path id="Path_1026" data-name="Path 1026" d="M173.287,88.409a18.765,18.765,0,0,1-18.7,18.852H23.7A18.765,18.765,0,0,1,5,88.409L19.024,31.852C20.046,21.985,27.387,13,37.722,13H140.564c10.335,0,17.238,8.248,18.7,18.852Z" transform="translate(0 29.217)" fill="#455a64"/>
    <path id="Path_1027" data-name="Path 1027" d="M50.852,45.426A9.426,9.426,0,1,1,41.426,36,9.421,9.421,0,0,1,50.852,45.426Z" transform="translate(99.121 114.008)" fill="#64dd17"/>
    <path id="Path_1028" data-name="Path 1028" d="M71.083,30.37C71.083,16.359,59.429,5,45.032,5,30.654,5,19,16.359,19,30.37,19,44.4,30.654,55.757,45.032,55.757,59.429,55.757,71.083,44.4,71.083,30.37Z" transform="translate(51.236)" fill="#bbdefb"/>
    <path id="Path_1029" data-name="Path 1029" d="M64.1,36.029c0-11.543-9.61-20.9-21.448-20.9S21.2,24.485,21.2,36.029s9.61,20.9,21.448,20.9S64.1,47.572,64.1,36.029Z" transform="translate(59.345 37.242)" fill="#bbdefb"/>
    <path id="Path_1030" data-name="Path 1030" d="M57.9,31.9c0-11.543-9.61-20.9-21.448-20.9C24.592,11,15,20.353,15,31.9s9.592,20.9,21.448,20.9C48.286,52.792,57.9,43.439,57.9,31.9Z" transform="translate(36.635 22.053)" fill="#bbdefb"/>
    <path id="Path_1031" data-name="Path 1031" d="M70.965,29.245a18.389,18.389,0,0,0-36.766,0,18.389,18.389,0,0,0,36.766,0Z" transform="translate(107.035 23.283)" fill="#bbdefb"/>
    <path id="Path_1032" data-name="Path 1032" d="M65.766,32.312a18.389,18.389,0,0,0-36.766,0A18.143,18.143,0,0,0,47.373,50.225,18.147,18.147,0,0,0,65.766,32.312Z" transform="translate(87.73 34.558)" fill="#bbdefb"/>
    <path id="Path_1033" data-name="Path 1033" d="M68.822,27.4A19.659,19.659,0,0,0,48.92,8,19.664,19.664,0,0,0,29,27.4,19.648,19.648,0,0,0,48.92,46.791,19.644,19.644,0,0,0,68.822,27.4Z" transform="translate(87.73 11.139)" fill="#bbdefb"/>
    <path id="Path_1034" data-name="Path 1034" d="M66.795,31.029c0-11.543-9.592-20.9-21.448-20.9-11.838,0-21.448,9.353-21.448,20.9s9.61,20.9,21.448,20.9C57.2,51.925,66.795,42.572,66.795,31.029Z" transform="translate(69.234 19.058)" fill="#bbdefb"/>
  </g>
</svg>
