<svg id="Layer_1" height="512" viewBox="0 0 512 512" width="512" xmlns="http://www.w3.org/2000/svg" data-name="Layer 1"><path d="m93.65 280.87h-14.36a30 30 0 0 1 -30-30v-173.22a30 30 0 0 1 30-30h-40a30 30 0 0 0 -30 30v173.22a30 30 0 0 0 30 30h14.36a11 11 0 0 1 10.84 9.03c7.23 40.36 35.43 49.28 35.43 49.28.21.33.41.09.6-.6 1.44-5.14.98-19.57 5.62-32.71.442-1.248.93-2.485 1.47-3.7a86.613 86.613 0 0 1 -3.12-12.269 11 11 0 0 0 -10.84-9.031z" fill="#d4e1f4"/><g fill="#0635c9"><path d="m265.685 188a6 6 0 0 0 6 6h80.785a6 6 0 0 0 0-12h-80.785a6 6 0 0 0 -6 6z"/><path d="m239.526 188a6 6 0 0 0 -6-6h-127.326a6 6 0 1 0 0 12h127.326a6 6 0 0 0 6-6z"/><path d="m48.7 194h27.79a6 6 0 1 0 0-12h-27.79a6 6 0 0 0 0 12z"/><path d="m325.377 149a6 6 0 0 0 6 6h21.093a6 6 0 0 0 0-12h-21.093a6 6 0 0 0 -6 6z"/><path d="m266.528 155h35.314a6 6 0 0 0 0-12h-35.314a6 6 0 0 0 0 12z"/><path d="m48.7 155h188.052a6 6 0 0 0 0-12h-188.052a6 6 0 0 0 0 12z"/><path d="m352.47 107a6 6 0 0 0 0-12h-17.054a6 6 0 0 0 0 12z"/><path d="m311.478 101a6 6 0 0 0 -6-6h-73.044a6 6 0 1 0 0 12h73.044a6 6 0 0 0 6-6z"/><path d="m48.7 107h153.958a6 6 0 1 0 0-12h-153.958a6 6 0 0 0 0 12z"/><path d="m184.736 234h58.364a6 6 0 0 0 0-12h-58.364a6 6 0 0 0 0 12z"/><path d="m48.7 234h98.807a6 6 0 0 0 0-12h-98.807a6 6 0 0 0 0 12z"/><path d="m308.1 222h-38.364a6 6 0 0 0 0 12h38.364a6 6 0 1 0 0-12z"/></g><path d="m472.711 238h-80.711v12h80.711a24.466 24.466 0 0 1 24.289 24.222v123.656a24.38 24.38 0 0 1 -24.289 24.122h-107.3a6.219 6.219 0 0 0 -3.867 1.269l-35.544 28.531v-23.922a5.73 5.73 0 0 0 -5.8-5.878h-10.125a24.2 24.2 0 0 1 -24.075-24.122v-116.878h-12v116.878a36.209 36.209 0 0 0 36.075 36.122h3.925v30.349a6.093 6.093 0 0 0 3.511 5.413 6.209 6.209 0 0 0 2.637.587 6.006 6.006 0 0 0 3.793-1.269l43.584-35.08h105.186a36.393 36.393 0 0 0 36.289-36.122v-123.656a36.479 36.479 0 0 0 -36.289-36.222z" fill="#1ae5be"/><path d="m473.794 315a6 6 0 0 0 0-12h-28.989a6 6 0 0 0 0 12z" fill="#1ae5be"/><path d="m373.352 315h46.659a6 6 0 0 0 0-12h-46.659a6 6 0 0 0 0 12z" fill="#1ae5be"/><path d="m411.116 345a6 6 0 0 0 6 6h56.678a6 6 0 0 0 0-12h-56.678a6 6 0 0 0 -6 6z" fill="#1ae5be"/><path d="m351.664 345a6 6 0 0 0 6 6h35.174a6 6 0 0 0 0-12h-35.174a6 6 0 0 0 -6 6z" fill="#1ae5be"/><path d="m317.515 351h14.991a6 6 0 0 0 0-12h-14.991a6 6 0 0 0 0 12z" fill="#1ae5be"/><path d="m473.794 375h-17.462a6 6 0 0 0 0 12h17.462a6 6 0 0 0 0-12z" fill="#1ae5be"/><path d="m390.636 375a6 6 0 1 0 0 12h41.418a6 6 0 0 0 0-12z" fill="#1ae5be"/><path d="m317.515 387h47.964a6 6 0 1 0 0-12h-47.964a6 6 0 0 0 0 12z" fill="#1ae5be"/><path d="m317.805 315h29.989a6 6 0 0 0 0-12h-29.989a6 6 0 0 0 0 12z" fill="#1ae5be"/><path d="m252 328.771a6 6 0 0 0 -6 6v60.614a6 6 0 0 0 12 0v-60.614a6 6 0 0 0 -6-6z" fill="#1ae5be"/><path d="m252 300.771a6 6 0 0 0 -6 6v5.614a6 6 0 0 0 12 0v-5.614a6 6 0 0 0 -6-6z" fill="#1ae5be"/><path d="m362.349 42h-323.06a36.4 36.4 0 0 0 -36.289 36.289v172.585a36.233 36.233 0 0 0 36.126 36.126h14.52a4.93 4.93 0 0 1 4.935 4.018c7.075 39.476 32.877 51.386 38.488 53.54a6.051 6.051 0 0 0 3.015.784 6.194 6.194 0 0 0 .915-.076 6.461 6.461 0 0 0 5.3-5.06 57.23 57.23 0 0 0 1.3-9.243c2.081-22.276 6.486-43.963 34.833-43.963h156.568a6 6 0 0 0 0-12h-156.568c-18.016 0-31.025 6.988-38.665 21.261-6.181 11.546-7.345 25.739-8.167 33.739-7.783-5-20.735-16.341-25.2-41.278a16.765 16.765 0 0 0 -16.754-13.722h-14.357a24.36 24.36 0 0 1 -24.289-24.289v-172.422a24.288 24.288 0 0 1 24.289-24.289h322.591a24.191 24.191 0 0 1 24.12 24.12v172.754a24.2 24.2 0 0 1 -24.126 24.126h-22.874a6 6 0 0 0 0 12h22.88a36.226 36.226 0 0 0 36.12-36.12v-173.229a35.65 35.65 0 0 0 -35.651-35.651z" fill="#0635c9"/></svg>