<svg id="Layer_1" height="512" viewBox="0 0 512 512" width="512" xmlns="http://www.w3.org/2000/svg" data-name="Layer 1"><path d="m46 426.7v-341.4a21.81 21.81 0 0 1 21.82-21.8h-30a21.81 21.81 0 0 0 -21.82 21.8v341.4a21.811 21.811 0 0 0 21.82 21.8h30a21.811 21.811 0 0 1 -21.82-21.8z" fill="#d4e1f4"/><path d="m474.182 57.5h-436.364a27.838 27.838 0 0 0 -27.818 27.8v341.4a27.839 27.839 0 0 0 27.818 27.8h436.364a27.839 27.839 0 0 0 27.818-27.8v-341.4a27.838 27.838 0 0 0 -27.818-27.8zm-436.364 12h436.364a15.826 15.826 0 0 1 15.818 15.8v61.26h-468v-61.26a15.826 15.826 0 0 1 15.818-15.8zm436.364 373h-436.364a15.826 15.826 0 0 1 -15.818-15.8v-268.143h468v268.143a15.826 15.826 0 0 1 -15.818 15.8z" fill="#0635c9"/><path d="m60.571 130.394a23.127 23.127 0 1 0 -23.142-23.127 23.161 23.161 0 0 0 23.142 23.127zm0-34.253a11.127 11.127 0 1 1 -11.142 11.126 11.147 11.147 0 0 1 11.142-11.126z" fill="#0635c9"/><path d="m121.714 130.394a23.127 23.127 0 1 0 -23.143-23.127 23.161 23.161 0 0 0 23.143 23.127zm0-34.253a11.127 11.127 0 1 1 -11.143 11.126 11.148 11.148 0 0 1 11.143-11.126z" fill="#0635c9"/><path d="m182.857 130.394a23.127 23.127 0 1 0 -23.143-23.127 23.161 23.161 0 0 0 23.143 23.127zm0-34.253a11.127 11.127 0 1 1 -11.143 11.126 11.148 11.148 0 0 1 11.143-11.126z" fill="#0635c9"/><path d="m273.143 112.126h196.571a6 6 0 0 0 0-12h-196.571a6 6 0 0 0 0 12z" fill="#0635c9"/><g fill="#1ae5be"><path d="m55.72 351.09h236.874a8.009 8.009 0 0 0 8-8v-150.148a8.009 8.009 0 0 0 -8-8h-236.874a8.009 8.009 0 0 0 -8 8v150.148a8.009 8.009 0 0 0 8 8zm4-154.148h228.874v142.148h-228.874z"/><path d="m200.37 261.086-45.071-26a8 8 0 0 0 -12 6.929v51.993a8.006 8.006 0 0 0 12 6.93l45.072-26a8 8 0 0 0 0-13.859zm-45.069 26v-38.142l33.065 19.072z"/><path d="m50.829 381.4h51.535a6 6 0 0 0 0-12h-51.535a6 6 0 0 0 0 12z"/><path d="m292.008 411.312a6 6 0 0 0 0-12h-241.179a6 6 0 0 0 0 12z"/><path d="m342.563 282.148h111.8a8.009 8.009 0 0 0 8-8v-81.206a8.008 8.008 0 0 0 -8-8h-111.8a8.009 8.009 0 0 0 -8 8v81.206a8.009 8.009 0 0 0 8 8zm4-85.206h103.8v73.206h-103.8z"/><path d="m342.563 411.779h111.8a8.008 8.008 0 0 0 8-8v-81.206a8.009 8.009 0 0 0 -8-8h-111.8a8.009 8.009 0 0 0 -8 8v81.206a8.009 8.009 0 0 0 8 8zm4-85.206h103.8v73.206h-103.8z"/></g></svg>